<?xml version="1.0" encoding="utf-8"?>
<svg viewBox="0 0 1024 1024" xmlns="http://www.w3.org/2000/svg">
  <defs/>
  <rect width="1024" height="1024" style="stroke: rgb(0, 0, 0); fill: rgb(51, 51, 51);"/>
  <path d="M 68.6 491.49 Q 74.06 491.49 77.33 494.17 Q 80.61 496.84 82.05 501.65 Q 83.5 506.47 83.5 512.98 Q 83.5 519.22 81.74 524.1 Q 79.99 528.97 76.48 531.76 Q 72.97 534.55 67.66 534.55 Q 60.99 534.55 56.98 529.87 L 56.98 549.33 L 49.49 550.23 L 49.49 492.47 L 55.92 492.47 L 56.47 498.01 Q 58.77 494.85 61.89 493.17 Q 65.01 491.49 68.6 491.49 Z M 66.69 497.38 Q 63.49 497.38 61.03 499.31 Q 58.58 501.24 56.98 503.7 L 56.98 523.59 Q 58.54 525.89 60.8 527.2 Q 63.06 528.51 65.83 528.51 Q 70.67 528.51 73.12 524.74 Q 75.58 520.98 75.58 512.98 Q 75.58 507.64 74.6 504.19 Q 73.63 500.74 71.66 499.06 Q 69.69 497.38 66.69 497.38 Z M 92.54 533.58 L 92.54 528.04 L 98.78 528.04 L 98.78 498.01 L 92.54 498.01 L 92.54 492.47 L 104.52 492.47 L 105.88 502.1 Q 108.22 496.99 111.64 494.24 Q 115.05 491.49 120.51 491.49 Q 122.3 491.49 123.69 491.77 Q 125.07 492.04 126.51 492.47 L 124.29 499.02 Q 123 498.63 121.95 498.48 Q 120.9 498.32 119.53 498.32 Q 114.89 498.32 111.58 501.67 Q 108.26 505.03 106.27 511.54 L 106.27 528.04 L 114.62 528.04 L 114.62 533.58 Z M 119.57 506.9 L 119.57 497.46 L 120.43 492.47 L 126.51 492.47 L 125.34 506.9 Z M 156.35 492.47 L 156.35 527.88 L 167.78 527.88 L 167.78 533.58 L 136.34 533.58 L 136.34 527.88 L 148.86 527.88 L 148.86 498.16 L 136.73 498.16 L 136.73 492.47 Z M 150.77 472.81 Q 153.11 472.81 154.54 474.26 Q 155.96 475.7 155.96 477.77 Q 155.96 479.91 154.54 481.37 Q 153.11 482.84 150.77 482.84 Q 148.47 482.84 147.05 481.37 Q 145.62 479.91 145.62 477.77 Q 145.62 475.7 147.05 474.26 Q 148.47 472.81 150.77 472.81 Z M 177.49 533.58 L 177.49 492.47 L 183.92 492.47 L 184.47 498.01 Q 187 494.85 190.65 493.17 Q 194.3 491.49 197.92 491.49 Q 203.85 491.49 206.66 494.71 Q 209.47 497.93 209.47 503.66 L 209.47 533.58 L 201.98 533.58 L 201.98 508.26 Q 201.98 504.36 201.53 501.93 Q 201.08 499.49 199.68 498.4 Q 198.28 497.31 195.43 497.31 Q 193.21 497.31 191.22 498.28 Q 189.23 499.26 187.65 500.74 Q 186.07 502.22 184.98 503.82 L 184.98 533.58 Z M 253.54 531.47 Q 251.35 532.87 248.27 533.71 Q 245.19 534.55 242.11 534.55 Q 235.25 534.55 231.6 530.96 Q 227.95 527.37 227.95 521.64 L 227.95 498.09 L 218.63 498.09 L 218.63 492.47 L 227.95 492.47 L 227.95 483.19 L 235.44 482.29 L 235.44 492.47 L 249.48 492.47 L 248.62 498.09 L 235.44 498.09 L 235.44 521.56 Q 235.44 524.96 237.18 526.67 Q 238.91 528.39 242.97 528.39 Q 245.27 528.39 247.18 527.84 Q 249.09 527.3 250.73 526.44 Z" style="fill: rgb(242, 105, 99);"/>
  <path d="M 283.24 506.28 Q 283.24 512.16 284.23 516.86 Q 285.23 521.56 287.24 525.52 Q 289.24 529.48 292.34 533.15 Q 295.45 536.81 299.62 540.67 L 295.56 544.73 Q 289.28 539.54 284.76 534.04 Q 280.24 528.54 277.84 521.82 Q 275.44 515.09 275.44 506.28 Q 275.44 497.42 277.84 490.71 Q 280.24 484.01 284.76 478.51 Q 289.28 473.01 295.56 467.82 L 299.62 471.88 Q 295.45 475.7 292.36 479.37 Q 289.28 483.03 287.26 486.99 Q 285.23 490.95 284.23 495.65 Q 283.24 500.35 283.24 506.28 Z" style="fill: rgb(232, 233, 103);"/>
  <path d="M 332.98 496.45 L 331.7 475.93 L 340.47 475.93 L 339.22 496.45 Z M 346.32 496.45 L 345.07 475.93 L 353.85 475.93 L 352.56 496.45 Z M 394.99 533.58 L 394.99 508.54 L 375.88 508.54 L 375.88 533.58 L 368.16 533.58 L 368.16 479.83 L 375.88 479.83 L 375.88 502.18 L 394.99 502.18 L 394.99 479.83 L 402.72 479.83 L 402.72 533.58 Z M 418.2 515.56 Q 418.43 520.08 420.03 522.95 Q 421.63 525.81 424.21 527.16 Q 426.78 528.51 429.9 528.51 Q 432.98 528.51 435.55 527.57 Q 438.13 526.63 440.78 524.84 L 444.17 529.56 Q 441.29 531.86 437.5 533.2 Q 433.72 534.55 429.67 534.55 Q 423.5 534.55 419.19 531.84 Q 414.88 529.13 412.64 524.29 Q 410.4 519.46 410.4 513.06 Q 410.4 506.86 412.64 501.99 Q 414.88 497.11 418.98 494.3 Q 423.07 491.49 428.73 491.49 Q 434.03 491.49 437.88 493.95 Q 441.72 496.41 443.78 500.95 Q 445.85 505.5 445.85 511.81 Q 445.85 512.87 445.81 513.84 Q 445.77 514.82 445.69 515.56 Z M 428.81 497.34 Q 424.44 497.34 421.53 500.46 Q 418.63 503.58 418.2 510.1 L 438.64 510.1 Q 438.52 503.86 435.93 500.6 Q 433.33 497.34 428.81 497.34 Z M 471.71 475.93 L 471.71 522.97 Q 471.71 525.93 473.54 527.16 Q 475.37 528.39 478.26 528.39 Q 480.09 528.39 481.73 528 Q 483.37 527.61 485.01 526.98 L 486.96 532.33 Q 485.24 533.19 482.67 533.87 Q 480.09 534.55 476.86 534.55 Q 471.08 534.55 467.65 531.31 Q 464.22 528.08 464.22 522.42 L 464.22 481.63 L 451.7 481.63 L 451.7 475.93 Z M 514.38 475.93 L 514.38 522.97 Q 514.38 525.93 516.21 527.16 Q 518.04 528.39 520.93 528.39 Q 522.76 528.39 524.4 528 Q 526.04 527.61 527.67 526.98 L 529.62 532.33 Q 527.91 533.19 525.33 533.87 Q 522.76 534.55 519.52 534.55 Q 513.75 534.55 510.32 531.31 Q 506.89 528.08 506.89 522.42 L 506.89 481.63 L 494.37 481.63 L 494.37 475.93 Z M 556.18 491.49 Q 562.07 491.49 566.07 494.15 Q 570.07 496.8 572.12 501.61 Q 574.16 506.43 574.16 512.98 Q 574.16 519.34 572.08 524.2 Q 569.99 529.05 565.97 531.8 Q 561.96 534.55 556.11 534.55 Q 550.26 534.55 546.22 531.9 Q 542.18 529.25 540.12 524.41 Q 538.05 519.57 538.05 513.06 Q 538.05 506.67 540.14 501.81 Q 542.22 496.95 546.28 494.22 Q 550.33 491.49 556.18 491.49 Z M 556.18 497.46 Q 551.11 497.46 548.54 501.26 Q 545.97 505.07 545.97 513.06 Q 545.97 520.98 548.5 524.78 Q 551.04 528.58 556.11 528.58 Q 561.18 528.58 563.71 524.78 Q 566.25 520.98 566.25 512.98 Q 566.25 505.03 563.73 501.24 Q 561.21 497.46 556.18 497.46 Z M 598.77 520.24 Q 601.62 520.24 603.53 522.15 Q 605.44 524.06 605.44 526.83 Q 605.44 528.39 605.03 529.97 Q 604.62 531.55 603.61 533.69 L 597.41 547.89 L 591.13 547.89 L 594.91 532.29 Q 593.66 531.39 592.92 529.93 Q 592.18 528.47 592.18 526.79 Q 592.18 524.06 594.07 522.15 Q 595.96 520.24 598.77 520.24 Z M 675.23 479.83 L 667.35 533.58 L 657.76 533.58 L 651.95 493.37 L 646.06 533.58 L 636.23 533.58 L 628.98 479.83 L 636.58 479.83 L 641.69 525.58 L 647.82 486.07 L 656.55 486.07 L 662.36 525.58 L 668.17 479.83 Z M 694.85 491.49 Q 700.74 491.49 704.74 494.15 Q 708.73 496.8 710.78 501.61 Q 712.83 506.43 712.83 512.98 Q 712.83 519.34 710.74 524.2 Q 708.66 529.05 704.64 531.8 Q 700.62 534.55 694.77 534.55 Q 688.92 534.55 684.89 531.9 Q 680.85 529.25 678.78 524.41 Q 676.72 519.57 676.72 513.06 Q 676.72 506.67 678.8 501.81 Q 680.89 496.95 684.94 494.22 Q 689 491.49 694.85 491.49 Z M 694.85 497.46 Q 689.78 497.46 687.21 501.26 Q 684.63 505.07 684.63 513.06 Q 684.63 520.98 687.17 524.78 Q 689.7 528.58 694.77 528.58 Q 699.84 528.58 702.38 524.78 Q 704.91 520.98 704.91 512.98 Q 704.91 505.03 702.4 501.24 Q 699.88 497.46 694.85 497.46 Z M 721.88 533.58 L 721.88 528.04 L 728.12 528.04 L 728.12 498.01 L 721.88 498.01 L 721.88 492.47 L 733.85 492.47 L 735.22 502.1 Q 737.56 496.99 740.97 494.24 Q 744.38 491.49 749.84 491.49 Q 751.64 491.49 753.02 491.77 Q 754.4 492.04 755.85 492.47 L 753.62 499.02 Q 752.34 498.63 751.28 498.48 Q 750.23 498.32 748.87 498.32 Q 744.23 498.32 740.91 501.67 Q 737.6 505.03 735.61 511.54 L 735.61 528.04 L 743.95 528.04 L 743.95 533.58 Z M 748.91 506.9 L 748.91 497.46 L 749.76 492.47 L 755.85 492.47 L 754.68 506.9 Z M 781.04 475.93 L 781.04 522.97 Q 781.04 525.93 782.87 527.16 Q 784.71 528.39 787.59 528.39 Q 789.43 528.39 791.06 528 Q 792.7 527.61 794.34 526.98 L 796.29 532.33 Q 794.57 533.19 792 533.87 Q 789.43 534.55 786.19 534.55 Q 780.42 534.55 776.99 531.31 Q 773.55 528.08 773.55 522.42 L 773.55 481.63 L 761.03 481.63 L 761.03 475.93 Z M 831.24 475.04 L 838.72 475.93 L 838.72 533.58 L 832.13 533.58 L 831.51 528.31 Q 829.32 531.43 826.36 532.99 Q 823.4 534.55 819.89 534.55 Q 814.58 534.55 811.13 531.84 Q 807.68 529.13 806 524.29 Q 804.33 519.46 804.33 513.06 Q 804.33 506.82 806.26 501.97 Q 808.19 497.11 811.79 494.3 Q 815.4 491.49 820.51 491.49 Q 823.9 491.49 826.56 492.68 Q 829.21 493.87 831.24 496.17 Z M 822.46 497.38 Q 817.66 497.38 815.01 501.24 Q 812.36 505.11 812.36 513.06 Q 812.36 518.33 813.45 521.8 Q 814.54 525.27 816.61 526.95 Q 818.68 528.62 821.68 528.62 Q 824.92 528.62 827.28 526.75 Q 829.64 524.88 831.24 522.42 L 831.24 502.34 Q 829.64 500 827.39 498.69 Q 825.15 497.38 822.46 497.38 Z M 869.42 479.83 L 868.6 515.52 L 862.05 515.52 L 861.15 479.83 Z M 865.36 523.51 Q 867.74 523.51 869.34 525.11 Q 870.94 526.71 870.94 528.97 Q 870.94 531.27 869.34 532.91 Q 867.74 534.55 865.36 534.55 Q 863.06 534.55 861.48 532.91 Q 859.9 531.27 859.9 528.97 Q 859.9 526.71 861.48 525.11 Q 863.06 523.51 865.36 523.51 Z M 898.32 496.45 L 897.03 475.93 L 905.8 475.93 L 904.56 496.45 Z M 911.65 496.45 L 910.41 475.93 L 919.18 475.93 L 917.89 496.45 Z" style="fill: rgb(98, 242, 105);"/>
  <path d="M 967.64 506.28 Q 967.64 500.35 966.65 495.65 Q 965.65 490.95 963.62 486.99 Q 961.6 483.03 958.51 479.37 Q 955.43 475.7 951.26 471.88 L 955.32 467.82 Q 961.63 473.01 966.14 478.51 Q 970.64 484.01 973.04 490.71 Q 975.44 497.42 975.44 506.28 Q 975.44 515.09 973.04 521.82 Q 970.64 528.54 966.14 534.04 Q 961.63 539.54 955.32 544.73 L 951.26 540.67 Q 955.43 536.81 958.53 533.15 Q 961.63 529.48 963.64 525.52 Q 965.65 521.56 966.65 516.86 Q 967.64 512.16 967.64 506.28 Z" style="fill: rgb(225, 197, 79);"/>
</svg>