<?xml version="1.0" encoding="iso-8859-1"?>
<!-- Uploaded to: SVG Repo, www.svgrepo.com, Generator: SVG Repo Mixer Tools -->
<svg version="1.1" id="Layer_1" xmlns="http://www.w3.org/2000/svg" xmlns:xlink="http://www.w3.org/1999/xlink" 
	 viewBox="0 0 512 512" xml:space="preserve">
<circle style="fill:#00CC96;" cx="256" cy="256" r="256"/>
<path style="fill:#07B587;" d="M512,253.611l-79.792-79.792l-325.61,147.429l187.844,187.844
	c123.117-18.597,217.455-124.883,217.455-253.195c0-0.831,0-1.558,0-2.39L512,253.611z"/>
<rect x="225.821" y="137.159" transform="matrix(0.9386 0.3449 -0.3449 0.9386 97.9075 -95.1146)" style="fill:#E84F4F;" width="180.871" height="180.871"/>
<g>
	<path style="fill:#C94545;" d="M432.312,173.923l-62.338,169.766l-169.766-62.338L432.312,173.923z"/>
	<path style="fill:#C94545;" d="M372.779,295.066L352,215.793l-53.09,24.935l-17.974-27.013L229.3,242.391l143.376,52.675H372.779z"
		/>
</g>
<rect x="244.9" y="155.457" transform="matrix(0.9386 0.3449 -0.3449 0.9386 93.4854 -97.6939)" style="fill:#CDF1FF;" width="152.789" height="116.841"/>
<path style="fill:#BFE9F2;" d="M409.975,184.208l3.117,1.143l-40.312,109.611l-112.831-41.455l149.922-69.403L409.975,184.208z"/>
<path style="fill:#00CC96;" d="M372.779,295.066L352,215.793l-53.09,24.935l-17.974-27.013L229.3,242.391l143.376,52.675H372.779z"
	/>
<path style="fill:#07B587;" d="M372.779,295.066L352,215.793l-53.09,24.935l-2.597-3.948l-36.364,16.831L372.779,295.066z"/>
<circle style="fill:#FFD630;" cx="294.061" cy="177.516" r="20.036"/>
<rect x="106.697" y="98.911" style="fill:#E84F4F;" width="222.442" height="222.442"/>
<g>
	<path style="fill:#C94545;" d="M329.143,98.909v222.442H106.701L329.143,98.909z"/>
	<path style="fill:#C94545;" d="M311.896,264.001l-57.662-82.702l-50.701,51.325l-32.207-23.584l-47.377,55.065h187.948V264.001z"/>
</g>
<rect x="123.951" y="120.309" style="fill:#CDF1FF;" width="187.944" height="143.688"/>
<path style="fill:#BFE9F2;" d="M307.74,120.312h4.155v143.689H164.052L307.74,120.312z"/>
<path style="fill:#00CC96;" d="M311.896,264.001l-57.662-82.702l-50.701,51.325l-32.207-23.584l-47.377,55.065h187.948V264.001z"/>
<path style="fill:#07B587;" d="M311.896,264.001l-57.662-82.702l-50.701,51.325l-4.675-3.429l-34.91,34.91h147.844L311.896,264.001z
	"/>
<circle style="fill:#FFD630;" cx="171.12" cy="161.663" r="24.623"/>
<path style="fill:#FFFFFF;" d="M291.117,320.624l6.13,13.091l-0.624,0.311l-7.584,3.533l0,0L280,341.818l-0.728,0.311l-6.026-12.884
	c-41.351,14.234-87.377-5.298-105.871-45.195c-19.844-43.013-1.039-94.13,41.87-113.974c43.013-19.844,94.13-1.039,113.974,41.87
	C341.298,251.117,327.481,297.767,291.117,320.624z M217.662,188.156c-33.039,15.272-47.481,54.546-32.207,87.585
	s54.546,47.481,87.585,32.207c33.039-15.273,47.481-54.546,32.207-87.585S250.701,172.884,217.662,188.156z"/>
<path style="fill:#006775;" d="M299.221,332.78l-19.325,9.039l-2.286,1.039c-2.493,1.143-3.636,4.259-2.493,6.754l42.39,91.844
	c1.143,2.493,4.259,3.636,6.754,2.493l21.091-9.87c2.493-1.143,3.636-4.26,2.493-6.754l-42.39-91.844
	c-1.143-2.39-3.844-3.533-6.234-2.597V332.78z"/>
<path style="fill:#055661;" d="M296.52,334.027l2.286-1.039c2.493-1.143,5.611-0.104,6.754,2.493l42.39,91.844
	c1.143,2.493,0.104,5.611-2.493,6.754l-10.598,4.987l-45.922-101.403l7.584-3.533v-0.103H296.52z"/>
</svg>