<?xml version="1.0" encoding="utf-8"?>
<svg viewBox="0 0 400 300" xmlns="http://www.w3.org/2000/svg">
  <defs/>
  <rect width="400" height="300" style="stroke: rgb(0, 0, 0); fill: rgb(50, 50, 50);" transform="matrix(1, 0, 0, 1, 7.105427357601002e-15, -1.4210854715202004e-14)"/>
  <path d="M 34.46 165.45 L 34.46 146.16 L 36.73 146.16 L 36.96 147.84 L 37.04 147.84 Q 37.96 146.97 39.17 146.4 Q 40.37 145.82 41.6 145.82 Q 43.42 145.82 44.67 146.69 Q 45.92 147.56 46.57 149.13 Q 47.23 150.69 47.23 152.79 Q 47.23 155.15 46.36 156.8 Q 45.5 158.45 44.1 159.32 Q 42.7 160.19 41.07 160.19 Q 40.15 160.19 39.1 159.74 Q 38.05 159.29 37.18 158.51 L 37.1 158.51 L 37.24 160.97 L 37.24 165.45 Z M 40.54 157.89 Q 41.63 157.89 42.5 157.3 Q 43.37 156.71 43.87 155.58 Q 44.38 154.45 44.38 152.82 Q 44.38 151.39 44 150.34 Q 43.62 149.29 42.86 148.72 Q 42.11 148.15 40.85 148.15 Q 40.01 148.15 39.08 148.58 Q 38.16 149.01 37.24 149.99 L 37.24 156.46 Q 38.1 157.22 39 157.55 Q 39.9 157.89 40.54 157.89 Z M 48.36 159.85 L 48.36 146.16 L 50.66 146.16 L 50.88 149.35 L 50.97 149.35 Q 52.03 147.67 53.57 146.75 Q 55.11 145.82 56.93 145.82 Q 57.72 145.82 58.36 145.96 Q 59 146.1 59.62 146.38 L 59 148.76 Q 58.3 148.51 57.8 148.41 Q 57.3 148.31 56.51 148.31 Q 55.03 148.31 53.66 149.15 Q 52.28 149.99 51.14 152.07 L 51.14 159.85 Z M 69.76 159.85 L 69.76 148.4 L 63.6 148.4 L 63.6 146.16 L 72.51 146.16 L 72.51 159.85 Z M 70.88 143.5 Q 69.99 143.5 69.4 142.95 Q 68.81 142.41 68.81 141.51 Q 68.81 140.61 69.4 140.07 Q 69.99 139.52 70.88 139.52 Q 71.78 139.52 72.37 140.07 Q 72.95 140.61 72.95 141.51 Q 72.95 142.41 72.37 142.95 Q 71.78 143.5 70.88 143.5 Z M 76.13 159.85 L 76.13 146.16 L 78.4 146.16 L 78.62 148.37 L 78.73 148.37 Q 79.77 147.31 80.97 146.56 Q 82.18 145.82 83.77 145.82 Q 86.15 145.82 87.29 147.26 Q 88.42 148.71 88.42 151.37 L 88.42 159.85 L 85.65 159.85 L 85.65 151.73 Q 85.65 149.94 84.99 149.08 Q 84.33 148.23 82.79 148.23 Q 81.7 148.23 80.83 148.78 Q 79.97 149.32 78.9 150.41 L 78.9 159.85 Z M 101.34 160.19 Q 99.27 160.19 98.09 159.46 Q 96.91 158.73 96.4 157.44 Q 95.88 156.15 95.88 154.42 L 95.88 148.4 L 92.13 148.4 L 92.13 146.3 L 95.96 146.16 L 96.35 141.85 L 98.62 141.85 L 98.62 146.16 L 105.09 146.16 L 105.09 148.4 L 98.62 148.4 L 98.62 154.45 Q 98.62 155.62 98.93 156.41 Q 99.24 157.19 99.97 157.57 Q 100.69 157.95 101.95 157.95 Q 102.88 157.95 103.63 157.79 Q 104.39 157.64 105.09 157.39 L 105.65 159.4 Q 104.73 159.71 103.68 159.95 Q 102.63 160.19 101.34 160.19 Z" style="fill: rgb(242, 105, 99); line-height: 39.8591px;"/>
  <path d="M 118.82 164.78 Q 115.96 162.48 114.29 159.29 Q 112.63 156.1 112.63 152.07 Q 112.63 148.03 114.29 144.83 Q 115.96 141.62 118.82 139.35 L 120.36 140.67 Q 117.61 143.05 116.32 145.82 Q 115.04 148.59 115.04 152.07 Q 115.04 155.54 116.32 158.3 Q 117.61 161.05 120.36 163.46 Z" style="fill: rgb(232, 233, 103); line-height: 39.8591px;"/>
  <path d="M 127.84 150.33 L 127.05 143.95 L 126.97 140.64 L 130.5 140.64 L 130.41 143.95 L 129.63 150.33 Z M 134.5 150.33 L 133.72 143.95 L 133.63 140.64 L 137.16 140.64 L 137.08 143.95 L 136.29 150.33 Z M 138.27 159.85 L 138.27 141.51 L 141.09 141.51 L 141.09 149.04 L 148.04 149.04 L 148.04 141.51 L 150.87 141.51 L 150.87 159.85 L 148.04 159.85 L 148.04 151.48 L 141.09 151.48 L 141.09 159.85 Z M 162.07 160.19 Q 160 160.19 158.32 159.35 Q 156.64 158.51 155.63 156.9 Q 154.63 155.29 154.63 152.99 Q 154.63 150.75 155.63 149.14 Q 156.64 147.53 158.24 146.68 Q 159.83 145.82 161.65 145.82 Q 163.67 145.82 165.08 146.65 Q 166.5 147.47 167.24 148.92 Q 167.98 150.36 167.98 152.29 Q 167.98 152.74 167.94 153.13 Q 167.9 153.52 167.84 153.8 L 156.59 153.8 L 156.59 151.76 L 166.11 151.76 L 165.49 152.43 Q 165.49 150.22 164.5 149.11 Q 163.5 148.01 161.74 148.01 Q 160.56 148.01 159.57 148.57 Q 158.57 149.13 157.97 150.25 Q 157.37 151.37 157.37 152.99 Q 157.37 154.64 158.03 155.76 Q 158.69 156.88 159.82 157.44 Q 160.95 158 162.41 158 Q 163.59 158 164.54 157.68 Q 165.49 157.36 166.41 156.8 L 167.42 158.56 Q 166.33 159.26 165 159.72 Q 163.67 160.19 162.07 160.19 Z M 176.62 160.19 Q 174.35 160.19 173.15 158.86 Q 171.94 157.53 171.94 155.06 L 171.94 142.24 L 167.38 142.24 L 167.38 140 L 174.71 140 L 174.71 155.23 Q 174.71 156.69 175.44 157.29 Q 176.17 157.89 177.29 157.89 Q 177.82 157.89 178.42 157.76 Q 179.03 157.64 179.75 157.33 L 180.43 159.4 Q 179.47 159.71 178.63 159.95 Q 177.79 160.19 176.62 160.19 Z M 193.28 160.19 Q 191.02 160.19 189.81 158.86 Q 188.61 157.53 188.61 155.06 L 188.61 142.24 L 184.04 142.24 L 184.04 140 L 191.38 140 L 191.38 155.23 Q 191.38 156.69 192.11 157.29 Q 192.84 157.89 193.96 157.89 Q 194.49 157.89 195.09 157.76 Q 195.69 157.64 196.42 157.33 L 197.09 159.4 Q 196.14 159.71 195.3 159.95 Q 194.46 160.19 193.28 160.19 Z M 202.9 160.19 Q 201.11 160.19 199.55 159.35 Q 198 158.51 197.03 156.9 Q 196.07 155.29 196.07 153.02 Q 196.07 150.75 197.03 149.14 Q 198 147.53 199.55 146.68 Q 201.11 145.82 202.9 145.82 Q 204.69 145.82 206.25 146.68 Q 207.8 147.53 208.77 149.14 Q 209.73 150.75 209.73 153.02 Q 209.73 155.29 208.77 156.9 Q 207.8 158.51 206.25 159.35 Q 204.69 160.19 202.9 160.19 Z M 202.9 157.92 Q 204.1 157.92 205 157.3 Q 205.9 156.69 206.39 155.59 Q 206.88 154.5 206.88 153.02 Q 206.88 151.56 206.39 150.46 Q 205.9 149.35 205 148.73 Q 204.1 148.12 202.9 148.12 Q 201.7 148.12 200.8 148.73 Q 199.9 149.35 199.41 150.46 Q 198.92 151.56 198.92 153.02 Q 198.92 154.5 199.41 155.59 Q 199.9 156.69 200.8 157.3 Q 201.7 157.92 202.9 157.92 Z M 217.33 165.84 L 216.57 164.13 Q 218.39 163.38 219.27 162.23 Q 220.15 161.08 220.13 159.46 L 219.68 156.69 L 221.3 159.07 Q 220.94 159.43 220.52 159.57 Q 220.1 159.71 219.68 159.71 Q 219.01 159.71 218.46 159.44 Q 217.91 159.18 217.59 158.66 Q 217.27 158.14 217.27 157.41 Q 217.27 156.29 218 155.69 Q 218.73 155.09 219.73 155.09 Q 221.08 155.09 221.78 156.13 Q 222.48 157.16 222.48 158.98 Q 222.48 161.5 221.12 163.24 Q 219.76 164.97 217.33 165.84 Z M 247.44 159.85 L 244.75 141.48 L 247.8 141.48 L 248.92 152.54 Q 248.98 153.33 249.05 153.97 Q 249.12 154.61 249.16 155.3 Q 249.2 155.99 249.23 156.88 L 249.32 156.88 Q 249.48 155.99 249.62 155.3 Q 249.76 154.61 249.9 153.98 Q 250.04 153.35 250.21 152.57 L 251.86 146.19 L 254.19 146.19 L 255.78 152.57 Q 255.95 153.33 256.11 153.97 Q 256.26 154.61 256.4 155.31 Q 256.54 156.01 256.68 156.88 L 256.79 156.88 Q 256.82 156.01 256.86 155.31 Q 256.9 154.61 256.95 153.98 Q 256.99 153.35 257.07 152.57 L 258.14 141.48 L 261.08 141.48 L 258.47 159.85 L 255.2 159.85 L 253.57 152.91 Q 253.4 152.07 253.25 151.23 Q 253.1 150.39 252.96 149.55 L 252.87 149.55 Q 252.73 150.39 252.61 151.23 Q 252.48 152.07 252.26 152.91 L 250.66 159.85 Z M 265.4 160.19 Q 263.61 160.19 262.05 159.35 Q 260.5 158.51 259.53 156.9 Q 258.57 155.29 258.57 153.02 Q 258.57 150.75 259.53 149.14 Q 260.5 147.53 262.05 146.68 Q 263.61 145.82 265.4 145.82 Q 267.19 145.82 268.75 146.68 Q 270.3 147.53 271.27 149.14 Q 272.23 150.75 272.23 153.02 Q 272.23 155.29 271.27 156.9 Q 270.3 158.51 268.75 159.35 Q 267.19 160.19 265.4 160.19 Z M 265.4 157.92 Q 266.6 157.92 267.5 157.3 Q 268.4 156.69 268.89 155.59 Q 269.38 154.5 269.38 153.02 Q 269.38 151.56 268.89 150.46 Q 268.4 149.35 267.5 148.73 Q 266.6 148.12 265.4 148.12 Q 264.2 148.12 263.3 148.73 Q 262.4 149.35 261.91 150.46 Q 261.42 151.56 261.42 153.02 Q 261.42 154.5 261.91 155.59 Q 262.4 156.69 263.3 157.3 Q 264.2 157.92 265.4 157.92 Z M 277.53 159.85 L 277.53 146.16 L 279.83 146.16 L 280.05 149.35 L 280.13 149.35 Q 281.2 147.67 282.74 146.75 Q 284.28 145.82 286.1 145.82 Q 286.88 145.82 287.53 145.96 Q 288.17 146.1 288.79 146.38 L 288.17 148.76 Q 287.47 148.51 286.97 148.41 Q 286.46 148.31 285.68 148.31 Q 284.19 148.31 282.82 149.15 Q 281.45 149.99 280.3 152.07 L 280.3 159.85 Z M 297.45 160.19 Q 295.18 160.19 293.98 158.86 Q 292.77 157.53 292.77 155.06 L 292.77 142.24 L 288.21 142.24 L 288.21 140 L 295.55 140 L 295.55 155.23 Q 295.55 156.69 296.27 157.29 Q 297 157.89 298.12 157.89 Q 298.65 157.89 299.26 157.76 Q 299.86 157.64 300.59 157.33 L 301.26 159.4 Q 300.31 159.71 299.47 159.95 Q 298.63 160.19 297.45 160.19 Z M 310.31 160.19 Q 307.65 160.19 306.03 158.3 Q 304.4 156.41 304.4 153.02 Q 304.4 150.81 305.28 149.2 Q 306.17 147.59 307.57 146.7 Q 308.97 145.82 310.53 145.82 Q 311.74 145.82 312.69 146.27 Q 313.64 146.72 314.45 147.53 L 314.54 147.53 L 314.4 145.09 L 314.4 140 L 317.17 140 L 317.17 159.85 L 314.9 159.85 L 314.68 158.17 L 314.59 158.17 Q 313.78 158.98 312.66 159.58 Q 311.54 160.19 310.31 160.19 Z M 310.95 157.89 Q 311.88 157.89 312.73 157.43 Q 313.59 156.97 314.4 156.04 L 314.4 149.55 Q 313.59 148.79 312.77 148.47 Q 311.96 148.15 311.15 148.15 Q 310.09 148.15 309.2 148.73 Q 308.32 149.32 307.79 150.41 Q 307.26 151.51 307.26 152.99 Q 307.26 155.34 308.24 156.62 Q 309.22 157.89 310.95 157.89 Z M 326.98 153.19 L 326.61 144 L 326.53 141.09 L 329.27 141.09 L 329.19 144 L 328.82 153.19 Z M 327.9 160.19 Q 326.98 160.19 326.32 159.54 Q 325.66 158.9 325.66 157.83 Q 325.66 156.77 326.32 156.14 Q 326.98 155.51 327.9 155.51 Q 328.85 155.51 329.5 156.14 Q 330.14 156.77 330.14 157.83 Q 330.14 158.9 329.5 159.54 Q 328.85 160.19 327.9 160.19 Z M 336.17 150.33 L 335.39 143.95 L 335.3 140.64 L 338.83 140.64 L 338.75 143.95 L 337.96 150.33 Z M 342.84 150.33 L 342.05 143.95 L 341.97 140.64 L 345.5 140.64 L 345.41 143.95 L 344.63 150.33 Z" style="fill: rgb(98, 242, 105); line-height: 39.8591px;"/>
  <path d="M 357.82 164.78 L 356.28 163.46 Q 359.02 161.05 360.31 158.3 Q 361.6 155.54 361.6 152.07 Q 361.6 148.59 360.31 145.82 Q 359.02 143.05 356.28 140.67 L 357.82 139.35 Q 360.67 141.62 362.34 144.83 Q 364.01 148.03 364.01 152.07 Q 364.01 156.1 362.34 159.29 Q 360.67 162.48 357.82 164.78 Z" style="fill: rgb(232, 233, 103); line-height: 39.8591px;"/>
</svg>