<?xml version="1.0" standalone="no"?>
<!DOCTYPE svg PUBLIC "-//W3C//DTD SVG 20010904//EN"
 "http://www.w3.org/TR/2001/REC-SVG-20010904/DTD/svg10.dtd">
<svg version="1.0" xmlns="http://www.w3.org/2000/svg"
 width="512.000000pt" height="512.000000pt" viewBox="0 0 512.000000 512.000000"
 preserveAspectRatio="xMidYMid meet">
<metadata>
Created by potrace 1.14, written by Peter Selinger 2001-2017
</metadata>
<g transform="translate(0.000000,512.000000) scale(0.100000,-0.100000)"
fill="#000000" stroke="none">
<path d="M386 5104 c-176 -43 -329 -196 -371 -375 -13 -56 -15 -327 -15 -2169
0 -2316 -4 -2169 61 -2291 40 -74 134 -168 208 -208 122 -65 -25 -61 2291 -61
2316 0 2169 -4 2291 61 123 66 229 208 258 347 8 37 11 668 11 2155 0 1839 -2
2110 -15 2166 -43 181 -195 333 -376 376 -94 22 -4251 21 -4343 -1z m2424
-483 c359 -48 609 -153 790 -331 170 -167 267 -393 289 -673 24 -295 -35 -506
-198 -709 -69 -86 -103 -119 -192 -185 l-67 -49 47 -25 c71 -37 193 -133 251
-196 111 -122 194 -275 236 -441 32 -121 43 -341 25 -486 -67 -528 -422 -894
-976 -1005 -182 -36 -307 -41 -1112 -41 l-783 0 0 2081 0 2081 803 -5 c509 -3
833 -9 887 -16z"/>
<path d="M1820 3485 l0 -546 443 3 c495 4 492 4 646 79 57 28 100 59 140 98
104 106 142 207 142 383 0 282 -109 426 -376 500 -76 21 -104 22 -537 26
l-458 3 0 -546z"/>
<path d="M1820 1710 l0 -630 393 0 c527 1 622 11 776 86 100 49 206 153 250
247 82 171 80 462 -4 627 -78 154 -220 250 -424 285 -65 12 -183 15 -537 15
l-454 0 0 -630z"/>
</g>
</svg>
