<?xml version="1.0" standalone="no"?>
<!DOCTYPE svg PUBLIC "-//W3C//DTD SVG 20010904//EN"
 "http://www.w3.org/TR/2001/REC-SVG-20010904/DTD/svg10.dtd">
<svg version="1.0" xmlns="http://www.w3.org/2000/svg"
 width="512.000000pt" height="512.000000pt" viewBox="0 0 512.000000 512.000000"
 preserveAspectRatio="xMidYMid meet">
<metadata>
Created by potrace 1.14, written by Peter Selinger 2001-2017
</metadata>
<g transform="translate(0.000000,512.000000) scale(0.100000,-0.100000)"
fill="#000000" stroke="none">
<path d="M175 5081 c-72 -34 -105 -68 -139 -141 l-26 -55 0 -2321 c0 -2628 -9
-2377 84 -2470 93 -93 -157 -84 2466 -84 2623 0 2373 -9 2466 84 93 93 84
-158 84 2470 l0 2321 -26 55 c-34 73 -67 107 -139 141 l-60 29 -2325 0 -2325
0 -60 -29z m2700 -320 c352 -53 593 -136 792 -273 84 -58 211 -188 266 -271
196 -297 232 -779 82 -1095 -97 -205 -265 -373 -465 -466 l-70 -32 57 -18
c313 -98 549 -339 632 -647 71 -261 46 -607 -62 -873 -139 -342 -470 -590
-913 -686 -252 -54 -227 -53 -1291 -57 l-993 -4 0 713 c0 392 -3 1392 -7 2221
l-6 1508 949 -4 c670 -3 973 -7 1029 -16z"/>
<path d="M1820 3480 l0 -562 418 5 c373 4 427 6 508 24 299 68 444 241 444
533 0 260 -107 427 -318 501 -135 48 -175 51 -624 56 l-428 5 0 -562z"/>
<path d="M1820 1675 l0 -597 478 4 c451 4 481 5 555 26 231 64 371 197 423
402 24 96 15 288 -19 392 -58 181 -180 292 -378 345 -55 14 -133 17 -561 20
l-498 4 0 -596z"/>
</g>
</svg>
